<svg width="213" height="32" viewBox="0 0 213 32" fill="none" xmlns="http://www.w3.org/2000/svg">
<mask id="mask0" mask-type="alpha" maskUnits="userSpaceOnUse" x="0" y="9" width="13" height="16">
<path fill-rule="evenodd" clip-rule="evenodd" d="M0 9.59497H12.1178V24.4347H0V9.59497Z" fill="white"/>
</mask>
<g mask="url(#mask0)">
<path fill-rule="evenodd" clip-rule="evenodd" d="M11.008 20.309C11.008 16.4918 1.11022 17.8151 1.11022 13.1662C1.11022 11.073 3.42271 9.59497 6.0437 9.59497C8.07897 9.59497 9.89817 10.3955 11.008 11.7501L10.1754 12.4891C9.28119 11.4118 7.80129 10.6728 6.0437 10.6728C4.03922 10.6728 2.18923 11.7501 2.18923 13.1662C2.18923 16.6456 12.1178 15.414 12.1178 20.309C12.1178 22.7721 9.15798 24.4347 6.0437 24.4347C2.96021 24.4347 0.924937 23.2339 -6.10352e-05 21.9716L0.863333 21.2941C1.57272 22.2181 3.23743 23.3266 6.0437 23.3266C9.00397 23.3266 11.008 21.7558 11.008 20.309Z" fill="#3D2665"/>
</g>
<path fill-rule="evenodd" clip-rule="evenodd" d="M14.3077 17.0149C14.3077 20.5245 17.0519 23.3264 20.3515 23.3264C23.651 23.3264 26.3948 20.5245 26.3948 17.0149C26.3948 13.5052 23.651 10.6726 20.3515 10.6726C17.0519 10.6726 14.3077 13.5052 14.3077 17.0149ZM27.505 17.0148C27.505 21.1093 24.2983 24.4345 20.3514 24.4345C16.4046 24.4345 13.1979 21.1093 13.1979 17.0148C13.1979 12.9199 16.4046 9.59521 20.3514 9.59521C24.2983 9.59521 27.505 12.9199 27.505 17.0148Z" fill="#3D2665"/>
<path fill-rule="evenodd" clip-rule="evenodd" d="M30.8051 3.25293V22.9872C30.8051 23.018 30.8359 23.0492 30.8667 23.0492V24.1573C30.2194 24.1573 29.7256 23.634 29.7256 22.9872V3.25293H30.8051Z" fill="#3D2665"/>
<path fill-rule="evenodd" clip-rule="evenodd" d="M45.1126 18.4004V16.4606H38.4832C35.9546 16.4606 34.1046 18.0309 34.1046 19.7545C34.1046 21.6943 35.7082 23.3262 39.0381 23.3262C42.4609 23.3262 45.1126 20.74 45.1126 18.4004ZM32.9948 19.7545C32.9948 17.2611 35.5229 15.352 38.4831 15.352H45.1126V13.9975C45.1126 12.2734 42.9849 10.6728 40.1483 10.6728C38.2367 10.6728 36.6023 11.196 35.3997 11.9351L34.8139 11.0115C36.263 10.1187 38.113 9.59497 40.1483 9.59497C43.3858 9.59497 46.1921 11.4728 46.1921 13.9975V24.157H45.2671L45.1434 21.1403H45.1126C43.9412 23.1104 41.659 24.4342 39.038 24.4342C35.184 24.4342 32.9948 22.3714 32.9948 19.7545Z" fill="#3D2665"/>
<path fill-rule="evenodd" clip-rule="evenodd" d="M50.1702 9.87222L50.2939 14.4597H50.355C51.5889 11.5656 54.0863 9.59497 56.9541 9.59497L56.8304 10.7035C53.2537 10.7958 50.3247 14.3055 50.3247 18.6469V24.1575H49.2452V9.87222H50.1702Z" fill="#3D2665"/>
<path fill-rule="evenodd" clip-rule="evenodd" d="M117.72 18.4004V16.4606H111.09C108.562 16.4606 106.712 18.0309 106.712 19.7545C106.712 21.6943 108.315 23.3262 111.645 23.3262C115.068 23.3262 117.72 20.74 117.72 18.4004ZM105.601 19.7545C105.601 17.2611 108.13 15.352 111.09 15.352H117.72V13.9975C117.72 12.2734 115.592 10.6728 112.755 10.6728C110.843 10.6728 109.209 11.196 108.007 11.9351L107.421 11.0115C108.87 10.1187 110.72 9.59497 112.755 9.59497C115.993 9.59497 118.799 11.4728 118.799 13.9975V24.157H117.874L117.751 21.1403H117.72C116.547 23.1104 114.266 24.4342 111.645 24.4342C107.791 24.4342 105.601 22.3714 105.601 19.7545Z" fill="#3D2665"/>
<path fill-rule="evenodd" clip-rule="evenodd" d="M122.777 9.87222L122.901 13.9359H122.993C124.257 11.3498 126.724 9.59497 129.56 9.59497C132.86 9.59497 135.05 11.4733 135.05 14.5515V24.1575H133.939V14.5515C133.939 12.0581 132.243 10.6728 129.56 10.6728C125.922 10.6728 122.931 13.8744 122.931 17.8464V24.1575H121.852V9.87222H122.777Z" fill="#3D2665"/>
<path fill-rule="evenodd" clip-rule="evenodd" d="M149.08 18.4004V16.4606H142.45C139.922 16.4606 138.071 18.0309 138.071 19.7545C138.071 21.6943 139.675 23.3262 143.005 23.3262C146.428 23.3262 149.08 20.74 149.08 18.4004ZM136.962 19.7545C136.962 17.2611 139.49 15.352 142.45 15.352H149.08V13.9975C149.08 12.2734 146.952 10.6728 144.115 10.6728C142.203 10.6728 140.569 11.196 139.367 11.9351L138.781 11.0115C140.23 10.1187 142.08 9.59497 144.115 9.59497C147.353 9.59497 150.159 11.4728 150.159 13.9975V24.157H149.234L149.111 21.1403H149.08C147.908 23.1104 145.626 24.4342 143.005 24.4342C139.151 24.4342 136.962 22.3714 136.962 19.7545Z" fill="#3D2665"/>
<path fill-rule="evenodd" clip-rule="evenodd" d="M154.291 3.25293V22.9872C154.291 23.018 154.322 23.0492 154.353 23.0492V24.1573C153.706 24.1573 153.211 23.634 153.211 22.9872V3.25293H154.291Z" fill="#3D2665"/>
<path fill-rule="evenodd" clip-rule="evenodd" d="M156.974 9.65673L163.357 24.0035L170.264 9.62598L171.282 10.1185L162.74 27.8207C161.723 29.9455 160.366 30.746 159.04 30.746C157.56 30.746 156.326 29.6683 155.709 28.7447L156.634 28.1599C157.158 28.9605 158.115 29.6683 159.04 29.6683C159.872 29.6683 160.828 29.145 161.723 27.3286L162.74 25.2965L155.987 10.0878L156.974 9.65673Z" fill="#3D2665"/>
<path fill-rule="evenodd" clip-rule="evenodd" d="M175.198 6.57812V9.87206H180.718V10.9499H175.198V20.3089C175.198 21.9719 176.555 23.3265 178.22 23.3265C179.021 23.3265 179.761 23.0492 180.379 22.6177L181.026 23.5105C180.256 24.0958 179.269 24.4345 178.22 24.4345C175.939 24.4345 174.088 22.5874 174.088 20.3089V10.9499H171.899V9.87206H174.088V6.57812H175.198Z" fill="#3D2665"/>
<mask id="mask1" mask-type="alpha" maskUnits="userSpaceOnUse" x="0" y="0" width="213" height="32">
<path fill-rule="evenodd" clip-rule="evenodd" d="M0 32H212.602V0H0V32Z" fill="white"/>
</mask>
<g mask="url(#mask1)">
<path fill-rule="evenodd" clip-rule="evenodd" d="M182.907 24.1574H183.987V9.87213H182.907V24.1574ZM183.433 4.36157C183.957 4.36157 184.419 4.79213 184.419 5.31588C184.419 5.83916 183.957 6.30094 183.433 6.30094C182.908 6.30094 182.476 5.83916 182.476 5.31588C182.476 4.79213 182.908 4.36157 183.433 4.36157Z" fill="#3D2665"/>
<path fill-rule="evenodd" clip-rule="evenodd" d="M198.85 11.9656L198.048 12.7354C196.876 11.5038 195.396 10.6725 193.608 10.6725C190.123 10.6725 187.286 13.5667 187.286 17.0148C187.286 20.4626 190.154 23.3264 193.608 23.3264C195.396 23.3264 196.876 22.5254 198.048 21.2943L198.85 22.0641C196.661 24.4033 194.255 24.4345 193.608 24.4345C189.537 24.4345 186.176 21.079 186.176 17.0148C186.176 12.9507 189.507 9.59521 193.608 9.59521C194.255 9.59521 196.661 9.62597 198.85 11.9656Z" fill="#3D2665"/>
<path fill-rule="evenodd" clip-rule="evenodd" d="M211.492 20.309C211.492 16.4918 201.593 17.8151 201.593 13.1662C201.593 11.073 203.907 9.59497 206.527 9.59497C208.563 9.59497 210.381 10.3955 211.492 11.7501L210.66 12.4891C209.765 11.4118 208.285 10.6728 206.527 10.6728C204.523 10.6728 202.673 11.7501 202.673 13.1662C202.673 16.6456 212.602 15.414 212.602 20.309C212.602 22.7721 209.642 24.4347 206.527 24.4347C203.444 24.4347 201.409 23.2339 200.484 21.9716L201.348 21.2941C202.056 22.2181 203.722 23.3266 206.527 23.3266C209.487 23.3266 211.492 21.7558 211.492 20.309Z" fill="#3D2665"/>
<path fill-rule="evenodd" clip-rule="evenodd" d="M80.5243 0.00372776V0C71.6738 0 64.4993 7.16335 64.4993 16C64.4993 24.8366 71.6738 32 80.5243 32V31.9963C80.5747 31.9967 80.6247 32 80.6755 32C80.6811 32 80.6867 31.9995 80.6923 31.9995V0.00046597C80.6867 0.00046597 80.6811 0 80.6755 0C80.6247 0 80.5747 0.00326179 80.5243 0.00372776Z" fill="#F89E1D"/>
<path fill-rule="evenodd" clip-rule="evenodd" d="M81.6168 31.9704C82.0845 31.9429 82.547 31.8963 83.0029 31.8297V11.5837H81.6168V31.9704Z" fill="#FEC434"/>
<path fill-rule="evenodd" clip-rule="evenodd" d="M83.9271 31.6697C84.3976 31.5733 84.8591 31.4535 85.3132 31.317V2.70972H83.9271V31.6697Z" fill="#FEC434"/>
<path fill-rule="evenodd" clip-rule="evenodd" d="M86.2375 31.0086C86.7103 30.8338 87.1733 30.6386 87.6236 30.4219V7.5498H86.2375V31.0086Z" fill="#FEC434"/>
<path fill-rule="evenodd" clip-rule="evenodd" d="M88.548 29.9345C89.0259 29.6647 89.4884 29.3707 89.9341 29.0548V14.8101H88.548V29.9345Z" fill="#FEC434"/>
<path fill-rule="evenodd" clip-rule="evenodd" d="M90.8585 28.3547C91.3467 27.9531 91.8073 27.5202 92.2446 27.0645V10.7332H90.8585V28.3547Z" fill="#FEC434"/>
<path fill-rule="evenodd" clip-rule="evenodd" d="M93.1688 26.0153C93.6807 25.3798 94.1437 24.7036 94.5553 23.9935V8.86719H93.1688V26.0153Z" fill="#FEC434"/>
<path fill-rule="evenodd" clip-rule="evenodd" d="M95.4792 9.8689V22.1314C96.2647 20.2423 96.7006 18.1725 96.7006 16.0001C96.7006 13.8278 96.2647 11.7575 95.4792 9.8689Z" fill="#FEC434"/>
</g>
</svg>
